name C:\Users\u0101727\Documents\MyRepositories\upper-imu-dc\Results\main_tracking\Case_14\ABD01_angularVelocities_groundFrame.mot
datacolumns 4
datarows 129
range 6.31000000 7.59000000
endheader 
time	radius_imu_x	radius_imu_y	radius_imu_z	
          6.31000000	         -0.54849558	          0.44609209	         -0.11724697	
          6.32000000	         -0.55104694	          0.44645754	         -0.12905234	
          6.33000000	         -0.55381304	          0.44872738	         -0.13713798	
          6.34000000	         -0.55653547	          0.45122862	         -0.14239196	
          6.35000000	         -0.55886108	          0.45190252	         -0.14605660	
          6.36000000	         -0.56037931	          0.44893064	         -0.14929548	
          6.37000000	         -0.56069330	          0.44137894	         -0.15276142	
          6.38000000	         -0.55950739	          0.42963919	         -0.15631489	
          6.39000000	         -0.55669637	          0.41546946	         -0.15902126	
          6.40000000	         -0.55232566	          0.40153879	         -0.15946574	
          6.41000000	         -0.54661052	          0.39059539	         -0.15627310	
          6.42000000	         -0.53983392	          0.38457681	         -0.14861282	
          6.43000000	         -0.53226377	          0.38399790	         -0.13649588	
          6.44000000	         -0.52409979	          0.38783191	         -0.12076961	
          6.45000000	         -0.51546027	          0.39391175	         -0.10283206	
          6.46000000	         -0.50640333	          0.39968835	         -0.08418125	
          6.47000000	         -0.49696982	          0.40304879	         -0.06597224	
          6.48000000	         -0.48722780	          0.40287958	         -0.04875314	
          6.49000000	         -0.47729529	          0.39917568	         -0.03247778	
          6.50000000	         -0.46732722	          0.39271306	         -0.01676203	
          6.51000000	         -0.45747747	          0.38450653	         -0.00123075	
          6.52000000	         -0.44786378	          0.37533755	          0.01421990	
          6.53000000	         -0.43855584	          0.36554737	          0.02934284	
          6.54000000	         -0.42958707	          0.35513418	          0.04363579	
          6.55000000	         -0.42098108	          0.34403668	          0.05652809	
          6.56000000	         -0.41278315	          0.33246143	          0.06757324	
          6.57000000	         -0.40507767	          0.32104508	          0.07655422	
          6.58000000	         -0.39797888	          0.31077196	          0.08347179	
          6.59000000	         -0.39159984	          0.30272979	          0.08845708	
          6.60000000	         -0.38602587	          0.29781795	          0.09167840	
          6.61000000	         -0.38128346	          0.29652645	          0.09322186	
          6.62000000	         -0.37734324	          0.29880580	          0.09308779	
          6.63000000	         -0.37415717	          0.30409318	          0.09129095	
          6.64000000	         -0.37165421	          0.31147634	          0.08780664	
          6.65000000	         -0.36973287	          0.31993044	          0.08259345	
          6.66000000	         -0.36823879	          0.32858967	          0.07570151	
          6.67000000	         -0.36693023	          0.33701007	          0.06732459	
          6.68000000	         -0.36549657	          0.34534397	          0.05784802	
          6.69000000	         -0.36363292	          0.35430782	          0.04784482	
          6.70000000	         -0.36113748	          0.36493027	          0.03800658	
          6.71000000	         -0.35797239	          0.37817339	          0.02902566	
          6.72000000	         -0.35424964	          0.39455784	          0.02146197	
          6.73000000	         -0.35015445	          0.41388416	          0.01562543	
          6.74000000	         -0.34585439	          0.43511693	          0.01150894	
          6.75000000	         -0.34143284	          0.45651165	          0.00881497	
          6.76000000	         -0.33685154	          0.47602432	          0.00709259	
          6.77000000	         -0.33192801	          0.49190444	          0.00593475	
          6.78000000	         -0.32632548	          0.50324160	          0.00513966	
          6.79000000	         -0.31957537	          0.51024729	          0.00476667	
          6.80000000	         -0.31115046	          0.51419602	          0.00508661	
          6.81000000	         -0.30057649	          0.51708961	          0.00647071	
          6.82000000	         -0.28754687	          0.52115057	          0.00925999	
          6.83000000	         -0.27200858	          0.52824441	          0.01364192	
          6.84000000	         -0.25420194	          0.53932327	          0.01954884	
          6.85000000	         -0.23464786	          0.55403150	          0.02660717	
          6.86000000	         -0.21408052	          0.57059758	          0.03415828	
          6.87000000	         -0.19332990	          0.58604805	          0.04134339	
          6.88000000	         -0.17318130	          0.59668841	          0.04723345	
          6.89000000	         -0.15426507	          0.59869676	          0.05097204	
          6.90000000	         -0.13701856	          0.58866852	          0.05189533	
          6.91000000	         -0.12171531	          0.56404242	          0.04960811	
          6.92000000	         -0.10851696	          0.52347028	          0.04403907	
          6.93000000	         -0.09749065	          0.46719398	          0.03549572	
          6.94000000	         -0.08856723	          0.39735551	          0.02469491	
          6.95000000	         -0.08147366	          0.31804516	          0.01272202	
          6.96000000	         -0.07570513	          0.23489945	          0.00088544	
          6.97000000	         -0.07058284	          0.15422574	         -0.00952150	
          6.98000000	         -0.06538952	          0.08184941	         -0.01748958	
          6.99000000	         -0.05952477	          0.02202500	         -0.02250092	
          7.00000000	         -0.05261489	         -0.02327978	         -0.02460118	
          7.01000000	         -0.04454465	         -0.05459970	         -0.02433002	
          7.02000000	         -0.03541570	         -0.07473266	         -0.02256146	
          7.03000000	         -0.02545730	         -0.08817577	         -0.02031802	
          7.04000000	         -0.01491810	         -0.10037201	         -0.01859955	
          7.05000000	         -0.00395722	         -0.11684251	         -0.01823507	
          7.06000000	          0.00745686	         -0.14225794	         -0.01975404	
          7.07000000	          0.01961781	         -0.17960442	         -0.02329556	
          7.08000000	          0.03308904	         -0.22969779	         -0.02859481	
          7.09000000	          0.04863043	         -0.29121563	         -0.03506536	
          7.10000000	          0.06706674	         -0.36117968	         -0.04194593	
          7.11000000	          0.08914746	         -0.43561836	         -0.04844088	
          7.12000000	          0.11544466	         -0.51011112	         -0.05378329	
          7.13000000	          0.14630940	         -0.58007619	         -0.05719823	
          7.14000000	          0.18187069	         -0.64092329	         -0.05782714	
          7.15000000	          0.22203429	         -0.68836959	         -0.05473334	
          7.16000000	          0.26645104	         -0.71910492	         -0.04707318	
          7.17000000	          0.31447545	         -0.73162423	         -0.03438710	
          7.18000000	          0.36517342	         -0.72676482	         -0.01684909	
          7.19000000	          0.41742357	         -0.70758135	          0.00467498	
          7.20000000	          0.47010282	         -0.67855711	          0.02879255	
          7.21000000	          0.52229103	         -0.64447633	          0.05389248	
          7.22000000	          0.57340964	         -0.60937518	          0.07847691	
          7.23000000	          0.62324291	         -0.57587486	          0.10141808	
          7.24000000	          0.67184937	         -0.54502257	          0.12207818	
          7.25000000	          0.71941271	         -0.51661156	          0.14027065	
          7.26000000	          0.76608970	         -0.48981744	          0.15609418	
          7.27000000	          0.81189819	         -0.46389385	          0.16971785	
          7.28000000	          0.85666606	         -0.43866812	          0.18120763	
          7.29000000	          0.90004471	         -0.41467817	          0.19044970	
          7.30000000	          0.94157367	         -0.39294984	          0.19717604	
          7.31000000	          0.98076217	         -0.37456938	          0.20105774	
          7.32000000	          1.01715591	         -0.36027523	          0.20180847	
          7.33000000	          1.05037910	         -0.35023540	          0.19924764	
          7.34000000	          1.08015219	         -0.34404739	          0.19330860	
          7.35000000	          1.10628297	         -0.34087974	          0.18401929	
          7.36000000	          1.12863317	         -0.33962237	          0.17150467	
          7.37000000	          1.14707500	         -0.33896575	          0.15604150	
          7.38000000	          1.16146232	         -0.33745035	          0.13813461	
          7.39000000	          1.17164052	         -0.33358890	          0.11853812	
          7.40000000	          1.17750275	         -0.32609591	          0.09817052	
          7.41000000	          1.17907304	         -0.31415250	          0.07794312	
          7.42000000	          1.17657955	         -0.29760424	          0.05856382	
          7.43000000	          1.17048657	         -0.27703779	          0.04037358	
          7.44000000	          1.16147570	         -0.25373059	          0.02325671	
          7.45000000	          1.15038692	         -0.22947248	          0.00666465	
          7.46000000	          1.13813612	         -0.20624859	         -0.01021316	
          7.47000000	          1.12562112	         -0.18579592	         -0.02813512	
          7.48000000	          1.11362570	         -0.16912492	         -0.04742773	
          7.49000000	          1.10274104	         -0.15619802	         -0.06770183	
          7.50000000	          1.09333856	         -0.14596610	         -0.08784598	
          7.51000000	          1.08561816	         -0.13680343	         -0.10636695	
          7.52000000	          1.07970176	         -0.12717962	         -0.12196533	
          7.53000000	          1.07568291	         -0.11635236	         -0.13413246	
          7.54000000	          1.07356256	         -0.10490706	         -0.14357241	
          7.55000000	          1.07310797	         -0.09496359	         -0.15231112	
          7.56000000	          1.07375859	         -0.08986122	         -0.16341067	
          7.57000000	          1.07468701	         -0.09322881	         -0.18026577	
          7.58000000	          1.07503346	         -0.10755359	         -0.20555141	
          7.59000000	          1.07422328	         -0.13269947	         -0.24008900	
